Coordinates
version=1
nRows=17
nColumns=38
inDegrees=no

Units are S.I. units (second, meters, Newtons, ...)
If the header above contains a line with 'inDegrees', this indicates whether rotational values are in degrees (yes) or radians (no).

endheader
time	pelvis_tilt	pelvis_list	pelvis_rotation	pelvis_tx	pelvis_ty	pelvis_tz	hip_flexion_r	hip_adduction_r	hip_rotation_r	knee_angle_r	ankle_angle_r	subtalar_angle_r	mtp_angle_r	hip_flexion_l	hip_adduction_l	hip_rotation_l	knee_angle_l	ankle_angle_l	subtalar_angle_l	mtp_angle_l	lumbar_extension	lumbar_bending	lumbar_rotation	arm_flex_r	arm_add_r	arm_rot_r	elbow_flex_r	pro_sup_r	wrist_flex_r	wrist_dev_r	arm_flex_l	arm_add_l	arm_rot_l	elbow_flex_l	pro_sup_l	wrist_flex_l	wrist_dev_l
1.2	0.06359	1.32293	-1.51764	0.691458	0.723412	1.10786	0.203224	0.0321269	0.0460824	0.930145	-0.0694719	0	0	-0.251024	-0.0435825	-0.204266	0.336538	-0.123232	0	0	-0.374306	0.104607	-0.0950741	0.544099	-0.529588	0.528235	1.17813	0.72511	0	0	0.296946	-0.447326	0.114651	1.21984	0.785222	0	0
1.21	0.0606745	1.32499	-1.51285	0.693832	0.712259	1.1072	0.214068	0.0330325	0.047254	0.890714	-0.0631838	0	0	-0.260363	-0.0431695	-0.204176	0.336559	-0.119656	0	0	-0.373083	0.106914	-0.0974272	0.54589	-0.530705	0.529458	1.18015	0.723797	0	0	0.29637	-0.447906	0.113766	1.22194	0.784399	0	0
1.22	0.0585454	1.32708	-1.50892	0.696085	0.701017	1.10632	0.223208	0.0339724	0.0497797	0.849391	-0.0564027	0	0	-0.269305	-0.0426774	-0.203807	0.337759	-0.115777	0	0	-0.371737	0.108775	-0.099726	0.547605	-0.531828	0.530727	1.1822	0.723397	0	0	0.295521	-0.448459	0.112529	1.2243	0.784215	0	0
1.23	0.0582223	1.32926	-1.50681	0.698274	0.689678	1.10525	0.230758	0.0343217	0.0535364	0.805672	-0.0495957	0	0	-0.278139	-0.0419823	-0.202967	0.339402	-0.11237	0	0	-0.370167	0.109963	-0.101904	0.548704	-0.53258	0.530888	1.18415	0.724231	0	0	0.294504	-0.448818	0.111096	1.22692	0.784153	0	0
1.24	0.0599986	1.33227	-1.50697	0.70039	0.678185	1.10392	0.238002	0.0338145	0.0581206	0.760166	-0.0427241	0	0	-0.286029	-0.0409267	-0.201741	0.341553	-0.11139	0	0	-0.367303	0.110214	-0.103662	0.549125	-0.533467	0.530972	1.18578	0.723796	0	0	0.293362	-0.449081	0.110156	1.22938	0.784258	0	0
1.25	0.0618815	1.33514	-1.50731	0.70242	0.666546	1.10242	0.243663	0.0330629	0.0629708	0.71205	-0.0371453	0	0	-0.294137	-0.0399432	-0.199466	0.344141	-0.105253	0	0	-0.364653	0.11019	-0.104687	0.547016	-0.533316	0.526214	1.18811	0.730707	0	0	0.292376	-0.448865	0.109302	1.23214	0.784857	0	0
1.26	0.0652572	1.33876	-1.50943	0.704357	0.654728	1.10066	0.249265	0.0316553	0.0680791	0.663343	-0.0299023	0	0	-0.301266	-0.0388503	-0.197599	0.347527	-0.10229	0	0	-0.360748	0.109521	-0.105881	0.547221	-0.534821	0.527309	1.18962	0.727106	0	0	0.290503	-0.448289	0.107526	1.23485	0.785829	0	0
1.27	0.0696687	1.34257	-1.51263	0.706221	0.642718	1.09877	0.253429	0.0297576	0.0725173	0.613378	-0.0215808	0	0	-0.308285	-0.0377092	-0.195842	0.350723	-0.0985316	0	0	-0.356597	0.108426	-0.106612	0.545979	-0.535879	0.526101	1.1913	0.725611	0	0	0.288534	-0.447434	0.105873	1.23771	0.786624	0	0
1.28	0.074834	1.34605	-1.51654	0.708046	0.630529	1.09684	0.255642	0.0274134	0.0758281	0.56163	-0.0121085	0	0	-0.315807	-0.0365943	-0.194391	0.353846	-0.0944829	0	0	-0.352685	0.107176	-0.107131	0.544088	-0.536936	0.524035	1.19318	0.725529	0	0	0.286426	-0.446175	0.103923	1.24048	0.7879	0	0
1.29	0.0799428	1.34883	-1.52029	0.709856	0.618203	1.09493	0.255001	0.0249166	0.0778941	0.506469	-0.00307892	0	0	-0.324428	-0.0357159	-0.193258	0.356672	-0.0911652	0	0	-0.349496	0.106056	-0.107572	0.541849	-0.537878	0.521143	1.19526	0.726402	0	0	0.284255	-0.444503	0.101569	1.24324	0.79009	0	0
1.3	0.085182	1.3512	-1.52407	0.711618	0.605735	1.09302	0.252302	0.0222909	0.0784524	0.449429	0.00507086	0	0	-0.333758	-0.0350913	-0.192201	0.359087	-0.0892458	0	0	-0.346599	0.104934	-0.10809	0.539401	-0.538705	0.518013	1.19731	0.727869	0	0	0.281999	-0.442729	0.0991933	1.246	0.792241	0	0
1.31	0.088373	1.35269	-1.52561	0.713273	0.593114	1.09114	0.246354	0.020229	0.0773625	0.388896	0.0104097	0	0	-0.343699	-0.0353267	-0.191478	0.362203	-0.0884051	0	0	-0.344465	0.104279	-0.10859	0.53704	-0.539459	0.5151	1.19917	0.730057	0	0	0.279842	-0.441032	0.0969511	1.24871	0.794278	0	0
1.32	0.0888162	1.35197	-1.52369	0.714923	0.580404	1.08949	0.233542	0.0188796	0.0745191	0.318407	0.00212298	0	0	-0.355917	-0.0367945	-0.190928	0.36505	-0.0895446	0	0	-0.34499	0.104561	-0.108899	0.532347	-0.538495	0.506072	1.20158	0.742996	0	0	0.278825	-0.43934	0.0955102	1.25124	0.796849	0	0
1.33	0.0903515	1.35219	-1.52302	0.716476	0.5675	1.08757	0.222016	0.0174911	0.0710813	0.253007	-0.00207602	0	0	-0.366428	-0.0384479	-0.191696	0.369812	-0.0903793	0	0	-0.343365	0.104455	-0.110163	0.532169	-0.539904	0.507442	1.20198	0.739296	0	0	0.276621	-0.438087	0.0935706	1.25318	0.798383	0	0
1.34	0.0908828	1.35038	-1.52029	0.718076	0.554444	1.08579	0.205516	0.0163536	0.0652576	0.183765	-0.0257136	0	0	-0.378834	-0.0412103	-0.192224	0.374855	-0.0941117	0	0	-0.343685	0.105013	-0.112232	0.531997	-0.541248	0.508502	1.20267	0.737016	0	0	0.27472	-0.437188	0.091981	1.25537	0.798798	0	0
1.35	0.0944561	1.35189	-1.52116	0.719447	0.541106	1.08349	0.197926	0.0147581	0.0584699	0.137721	-0.0260892	0	0	-0.386586	-0.0437366	-0.19345	0.383194	-0.0950033	0	0	-0.339741	0.104035	-0.113495	0.529055	-0.541438	0.506525	1.20309	0.737913	0	0	0.272533	-0.436369	0.0913359	1.25689	0.798858	0	0
1.36	0.0952099	1.35185	-1.51873	0.720753	0.527656	1.08128	0.188904	0.0141193	0.0515028	0.0997954	-0.0321328	0	0	-0.394762	-0.0478319	-0.195703	0.39454	-0.0982222	0	0	-0.337293	0.10399	-0.115708	0.527735	-0.541615	0.506836	1.2031	0.739462	0	0	0.269808	-0.438023	0.091677	1.25894	0.802509	0	0
